PathFileType	4	(X/Y/Z)	path1_04_0-548.trc
DataRate	CameraRate	NumFrames	NumMarkers	Units	OrigDataRate	OrigDataStartFrame	OrigNumFrames
30	30	4	22	m	30	0	548
Frame#	Time	Hip			RHip			RKnee			RAnkle			RBigToe			RSmallToe			RHeel			LHip			LKnee			LAnkle			LBigToe			LSmallToe			LHeel			Neck			Head			Nose			RShoulder			RElbow			RWrist			LShoulder			LElbow			LWrist		
		X1	Y1	Z1	X2	Y2	Z2	X3	Y3	Z3	X4	Y4	Z4	X5	Y5	Z5	X6	Y6	Z6	X7	Y7	Z7	X8	Y8	Z8	X9	Y9	Z9	X10	Y10	Z10	X11	Y11	Z11	X12	Y12	Z12	X13	Y13	Z13	X14	Y14	Z14	X15	Y15	Z15	X16	Y16	Z16	X17	Y17	Z17	X18	Y18	Z18	X19	Y19	Z19	X20	Y20	Z20	X21	Y21	Z21	X22	Y22	Z22
1	0.0333333333333333	2.70239001655241	0.8346090551266007	0.4554194921376592	2.706675747260254	0.8019571345439072	0.37919539343786246	2.722813872491107	0.44600691037678686	0.4043513068091636	2.7553438799742174	0.09422877391748583	0.39521091509598144	2.563315933321256	0.01983389527220662	0.3508802776260031	2.6077982139617073	0.019464160651415072	0.29844573619068915	2.8029105573559887	0.03541144755709534	0.39510102594583946	2.6984935948243534	0.8035373223263496	0.5485962310567127	2.711685202163797	0.4323927883260834	0.5205715173586917	2.76548216683048	0.08541743688857824	0.5198003814208156	2.5860599094215666	0.013676485945098064	0.5701534807866144	2.6397763907028824	0.007276250831102207	0.6164160713913265	2.8170126441705996	0.02749914026576744	0.5395319349123073	2.6691832768603025	1.4710746638868037	0.4818556313239736	2.576823103933897	1.6858462261658564	0.4593622819482842	2.5325409011311772	1.597867411414235	0.46212630475572586	2.7114675218815516	1.369371278951482	0.31262584164282614	2.7156495515024996	1.0856877176874218	0.2288256604209604	2.680068316431932	0.8452938252784088	0.20900181277508015	2.7099935780952027	1.350851502170445	0.601885492497912	2.7434555584543556	1.0745721788401512	0.6721171297694853	2.7267259375193396	0.8335129599877096	0.6901544652653414
2	0.0666666666666666	2.7004526597769285	0.8348962780369673	0.45464263068225497	2.705193670302242	0.801812404768631	0.3775950271675262	2.7104589000348893	0.45333742224449913	0.3866994082879401	2.748139658991829	0.09950865849946816	0.3886811486125357	2.5688474345507144	0.023842002964917505	0.35410108828549075	2.6082801015143744	0.02115251316318386	0.29954623836599703	2.8010467069527283	0.03336769152680387	0.3956523310228955	2.7001844457694593	0.8037220834453865	0.544302512295281	2.7157387625836673	0.4335282746951273	0.5192817393582965	2.7632025634994677	0.09063060316661675	0.5231620198321674	2.5861242381348024	0.014275227935595379	0.5700619027884172	2.6373349752519344	0.009006750630213585	0.6160257378094419	2.8113163701774226	0.030148683434193732	0.5319566367255771	2.668180129396874	1.4695479485371676	0.47758482781520517	2.6004988944118756	1.6923131840161196	0.4683049461092724	2.531618860883603	1.5991560480613911	0.45869202952082017	2.7108307124694058	1.3687614061180022	0.3078299262959371	2.715423313522997	1.083694280903023	0.2276329382837477	2.6801773717686337	0.8476753927375544	0.20850630689590516	2.7053554253970846	1.3498799896285405	0.607004423463316	2.746763358179936	1.0674161500388557	0.658837796739242	2.7264031547730028	0.8355187956402287	0.6881921181017746
3	0.1	2.698890469215373	0.8352323106410318	0.45417781448354855	2.7042028786067895	0.8020823158436527	0.37638410858065185	2.7006359713596395	0.4593696133428773	0.3726504916147654	2.742891640298426	0.10367249885315778	0.3835727490803603	2.5732906136210882	0.027105571184135077	0.35671318778011796	2.6085763356988245	0.022481948371280813	0.30042321152112017	2.7995461675009965	0.03151857999105298	0.39640611437375817	2.701470492121797	0.8042784865025046	0.5410977486422379	2.7188846597152723	0.4344972435560895	0.5184481043542597	2.760706806945256	0.09533780566980675	0.5256478260726491	2.5862767076336586	0.014665229702585447	0.570202221271947	2.6354867595641798	0.010498977591753516	0.6161535683161433	2.8062103763880746	0.03243646965938051	0.5251501095437917	2.6673497500184986	1.4681755857752736	0.4739626891801252	2.6192482326763713	1.6972298270669468	0.4752549353826915	2.5308307504001024	1.6001582161940306	0.456024955514917	2.710315514835281	1.3683273216864245	0.3039032985433771	2.7153902360078135	1.0820150609067036	0.226703071898892	2.680395366473801	0.8495807850739454	0.20799075970329556	2.7003207404198015	1.3491301374406897	0.6121512386492219	2.7495277206008915	1.061606508992032	0.6479733926083666	2.726109365687441	0.8372551087923311	0.686699855001386
4	0.1333333333333333	2.6978959318376923	0.8356300780402484	0.4540840619304792	2.703898946467171	0.8028399866701068	0.37573615445420744	2.694434738092687	0.463479187452689	0.36371710767890625	2.74018030921255	0.1063256779370576	0.38047553856698624	2.57614691116362	0.02919104698724857	0.3584636434761143	2.6087329914201614	0.023354775875648486	0.30107150870913646	2.798604787237207	0.030045857363065018	0.3973588630524836	2.702221851537557	0.8052479158522122	0.5393953802488813	2.7207766620727685	0.435189760220635	0.5182201061428626	2.758248571448847	0.09893451816254664	0.5268856553972128	2.5866003256779773	0.014763468791171963	0.5706625778917015	2.6344128020915636	0.011504196162986244	0.6167281169828833	2.8022712350085857	0.03401822360011789	0.5197830085618445	2.666781101941091	1.4670630447431379	0.4713732291372638	2.630763871872949	1.6997596954094054	0.47934102311531007	2.530224335249995	1.600738456045364	0.45440621652055896	2.709936374584991	1.3681195370794765	0.30130417899583206	2.715646061345279	1.0807903950456912	0.22618238676201427	2.6807448446185576	0.850749537101745	0.20752302411774037	2.6953493502370103	1.3487800315770346	0.6167733469107697	2.751431621208792	1.0578981897522735	0.6409117454592436	2.725877714613047	0.8385370994222567	0.685810451404897
